<mxfile host="app.diagrams.net" modified="2024-09-15T14:30:21.396Z" agent="Mozilla/5.0 (Windows NT 10.0; Win64; x64) AppleWebKit/537.36 (KHTML, like Gecko) Chrome/128.0.0.0 Safari/537.36" etag="fB7uVcHMEsxbqQW1KMVn" version="24.2.0" type="device">
  <diagram name="PÃ¡gina-1" id="OqUwzaEDlnO-dhrFErUZ">
    <mxGraphModel dx="2261" dy="744" grid="1" gridSize="10" guides="1" tooltips="1" connect="1" arrows="1" fold="1" page="1" pageScale="1" pageWidth="827" pageHeight="1169" math="0" shadow="0">
      <root>
        <mxCell id="0" />
        <mxCell id="1" parent="0" />
        <mxCell id="8hbCrLKdUro0mNGnIJSy-7" value="" style="shape=umlLifeline;perimeter=lifelinePerimeter;whiteSpace=wrap;html=1;container=1;dropTarget=0;collapsible=0;recursiveResize=0;outlineConnect=0;portConstraint=eastwest;newEdgeStyle={&quot;curved&quot;:0,&quot;rounded&quot;:0};participant=umlActor;" vertex="1" parent="1">
          <mxGeometry x="105" y="170" width="20" height="460" as="geometry" />
        </mxCell>
        <mxCell id="8hbCrLKdUro0mNGnIJSy-8" value="Cliente" style="text;html=1;align=center;verticalAlign=middle;resizable=0;points=[];autosize=1;strokeColor=none;fillColor=none;labelBackgroundColor=default;" vertex="1" parent="1">
          <mxGeometry x="85" y="210" width="60" height="30" as="geometry" />
        </mxCell>
        <mxCell id="8hbCrLKdUro0mNGnIJSy-12" style="edgeStyle=orthogonalEdgeStyle;rounded=0;orthogonalLoop=1;jettySize=auto;html=1;curved=0;exitX=1;exitY=0;exitDx=0;exitDy=5;exitPerimeter=0;" edge="1" parent="1" source="8hbCrLKdUro0mNGnIJSy-6" target="8hbCrLKdUro0mNGnIJSy-11">
          <mxGeometry relative="1" as="geometry">
            <Array as="points">
              <mxPoint x="210" y="265" />
              <mxPoint x="210" y="265" />
            </Array>
          </mxGeometry>
        </mxCell>
        <mxCell id="8hbCrLKdUro0mNGnIJSy-13" value="&lt;font style=&quot;font-size: 8px;&quot;&gt;INFORMA CONTA&lt;/font&gt;" style="edgeLabel;html=1;align=center;verticalAlign=middle;resizable=0;points=[];" vertex="1" connectable="0" parent="8hbCrLKdUro0mNGnIJSy-12">
          <mxGeometry x="-0.1429" y="2" relative="1" as="geometry">
            <mxPoint as="offset" />
          </mxGeometry>
        </mxCell>
        <mxCell id="8hbCrLKdUro0mNGnIJSy-6" value="" style="html=1;points=[[0,0,0,0,5],[0,1,0,0,-5],[1,0,0,0,5],[1,1,0,0,-5]];perimeter=orthogonalPerimeter;outlineConnect=0;targetShapes=umlLifeline;portConstraint=eastwest;newEdgeStyle={&quot;curved&quot;:0,&quot;rounded&quot;:0};fillStyle=solid;" vertex="1" parent="1">
          <mxGeometry x="110" y="260" width="10" height="280" as="geometry" />
        </mxCell>
        <mxCell id="8hbCrLKdUro0mNGnIJSy-9" value="" style="shape=umlLifeline;perimeter=lifelinePerimeter;whiteSpace=wrap;html=1;container=1;dropTarget=0;collapsible=0;recursiveResize=0;outlineConnect=0;portConstraint=eastwest;newEdgeStyle={&quot;curved&quot;:0,&quot;rounded&quot;:0};participant=umlActor;" vertex="1" parent="1">
          <mxGeometry x="240" y="170" width="30" height="520" as="geometry" />
        </mxCell>
        <mxCell id="8hbCrLKdUro0mNGnIJSy-11" value="" style="html=1;points=[[0,0,0,0,5],[0,1,0,0,-5],[1,0,0,0,5],[1,1,0,0,-5]];perimeter=orthogonalPerimeter;outlineConnect=0;targetShapes=umlLifeline;portConstraint=eastwest;newEdgeStyle={&quot;curved&quot;:0,&quot;rounded&quot;:0};fillStyle=solid;" vertex="1" parent="8hbCrLKdUro0mNGnIJSy-9">
          <mxGeometry x="10" y="90" width="10" height="100" as="geometry" />
        </mxCell>
        <mxCell id="8hbCrLKdUro0mNGnIJSy-55" value="" style="html=1;points=[[0,0,0,0,5],[0,1,0,0,-5],[1,0,0,0,5],[1,1,0,0,-5]];perimeter=orthogonalPerimeter;outlineConnect=0;targetShapes=umlLifeline;portConstraint=eastwest;newEdgeStyle={&quot;curved&quot;:0,&quot;rounded&quot;:0};fillStyle=solid;" vertex="1" parent="8hbCrLKdUro0mNGnIJSy-9">
          <mxGeometry x="10" y="230" width="10" height="260" as="geometry" />
        </mxCell>
        <mxCell id="8hbCrLKdUro0mNGnIJSy-73" value="" style="html=1;points=[[0,0,0,0,5],[0,1,0,0,-5],[1,0,0,0,5],[1,1,0,0,-5]];perimeter=orthogonalPerimeter;outlineConnect=0;targetShapes=umlLifeline;portConstraint=eastwest;newEdgeStyle={&quot;curved&quot;:0,&quot;rounded&quot;:0};" vertex="1" parent="8hbCrLKdUro0mNGnIJSy-9">
          <mxGeometry x="15" y="440" width="15" height="20" as="geometry" />
        </mxCell>
        <mxCell id="8hbCrLKdUro0mNGnIJSy-10" value="Funcionario" style="text;html=1;align=center;verticalAlign=middle;resizable=0;points=[];autosize=1;strokeColor=none;fillColor=none;labelBackgroundColor=default;" vertex="1" parent="1">
          <mxGeometry x="205" y="210" width="90" height="30" as="geometry" />
        </mxCell>
        <mxCell id="8hbCrLKdUro0mNGnIJSy-17" value="" style="shape=umlLifeline;perimeter=lifelinePerimeter;whiteSpace=wrap;html=1;container=1;dropTarget=0;collapsible=0;recursiveResize=0;outlineConnect=0;portConstraint=eastwest;newEdgeStyle={&quot;curved&quot;:0,&quot;rounded&quot;:0};participant=umlBoundary;" vertex="1" parent="1">
          <mxGeometry x="340" y="170" width="50" height="520" as="geometry" />
        </mxCell>
        <mxCell id="8hbCrLKdUro0mNGnIJSy-19" value="" style="html=1;points=[[0,0,0,0,5],[0,1,0,0,-5],[1,0,0,0,5],[1,1,0,0,-5]];perimeter=orthogonalPerimeter;outlineConnect=0;targetShapes=umlLifeline;portConstraint=eastwest;newEdgeStyle={&quot;curved&quot;:0,&quot;rounded&quot;:0};fillStyle=solid;" vertex="1" parent="8hbCrLKdUro0mNGnIJSy-17">
          <mxGeometry x="20" y="100" width="10" height="90" as="geometry" />
        </mxCell>
        <mxCell id="8hbCrLKdUro0mNGnIJSy-60" value="" style="html=1;points=[[0,0,0,0,5],[0,1,0,0,-5],[1,0,0,0,5],[1,1,0,0,-5]];perimeter=orthogonalPerimeter;outlineConnect=0;targetShapes=umlLifeline;portConstraint=eastwest;newEdgeStyle={&quot;curved&quot;:0,&quot;rounded&quot;:0};fillStyle=solid;" vertex="1" parent="8hbCrLKdUro0mNGnIJSy-17">
          <mxGeometry x="20" y="340" width="10" height="110" as="geometry" />
        </mxCell>
        <mxCell id="8hbCrLKdUro0mNGnIJSy-18" value=":INT_SISTEMA" style="text;html=1;align=center;verticalAlign=middle;resizable=0;points=[];autosize=1;strokeColor=none;fillColor=none;labelBackgroundColor=default;" vertex="1" parent="1">
          <mxGeometry x="310" y="210" width="110" height="30" as="geometry" />
        </mxCell>
        <mxCell id="8hbCrLKdUro0mNGnIJSy-20" style="edgeStyle=orthogonalEdgeStyle;rounded=0;orthogonalLoop=1;jettySize=auto;html=1;curved=0;" edge="1" parent="1" source="8hbCrLKdUro0mNGnIJSy-11" target="8hbCrLKdUro0mNGnIJSy-19">
          <mxGeometry relative="1" as="geometry">
            <Array as="points">
              <mxPoint x="330" y="280" />
              <mxPoint x="330" y="280" />
            </Array>
          </mxGeometry>
        </mxCell>
        <mxCell id="8hbCrLKdUro0mNGnIJSy-21" value="&lt;font style=&quot;font-size: 9px;&quot;&gt;DIGITA CONTA&lt;/font&gt;" style="edgeLabel;html=1;align=center;verticalAlign=middle;resizable=0;points=[];" vertex="1" connectable="0" parent="8hbCrLKdUro0mNGnIJSy-20">
          <mxGeometry x="0.0095" relative="1" as="geometry">
            <mxPoint as="offset" />
          </mxGeometry>
        </mxCell>
        <mxCell id="8hbCrLKdUro0mNGnIJSy-22" value="" style="shape=umlLifeline;perimeter=lifelinePerimeter;whiteSpace=wrap;html=1;container=1;dropTarget=0;collapsible=0;recursiveResize=0;outlineConnect=0;portConstraint=eastwest;newEdgeStyle={&quot;curved&quot;:0,&quot;rounded&quot;:0};participant=umlControl;" vertex="1" parent="1">
          <mxGeometry x="480" y="170" width="41.33" height="550" as="geometry" />
        </mxCell>
        <mxCell id="8hbCrLKdUro0mNGnIJSy-25" value="" style="html=1;points=[[0,0,0,0,5],[0,1,0,0,-5],[1,0,0,0,5],[1,1,0,0,-5]];perimeter=orthogonalPerimeter;outlineConnect=0;targetShapes=umlLifeline;portConstraint=eastwest;newEdgeStyle={&quot;curved&quot;:0,&quot;rounded&quot;:0};fillStyle=solid;" vertex="1" parent="8hbCrLKdUro0mNGnIJSy-22">
          <mxGeometry x="15.67" y="110" width="10" height="70" as="geometry" />
        </mxCell>
        <mxCell id="8hbCrLKdUro0mNGnIJSy-61" value="" style="html=1;points=[[0,0,0,0,5],[0,1,0,0,-5],[1,0,0,0,5],[1,1,0,0,-5]];perimeter=orthogonalPerimeter;outlineConnect=0;targetShapes=umlLifeline;portConstraint=eastwest;newEdgeStyle={&quot;curved&quot;:0,&quot;rounded&quot;:0};fillStyle=solid;" vertex="1" parent="8hbCrLKdUro0mNGnIJSy-22">
          <mxGeometry x="15.66" y="340" width="10" height="90" as="geometry" />
        </mxCell>
        <mxCell id="8hbCrLKdUro0mNGnIJSy-23" value=":CONT_SISTEMA" style="text;html=1;align=center;verticalAlign=middle;resizable=0;points=[];autosize=1;strokeColor=none;fillColor=none;labelBackgroundColor=default;" vertex="1" parent="1">
          <mxGeometry x="440.67" y="210" width="120" height="30" as="geometry" />
        </mxCell>
        <mxCell id="8hbCrLKdUro0mNGnIJSy-26" style="edgeStyle=orthogonalEdgeStyle;rounded=0;orthogonalLoop=1;jettySize=auto;html=1;curved=0;" edge="1" parent="1" target="8hbCrLKdUro0mNGnIJSy-25">
          <mxGeometry relative="1" as="geometry">
            <mxPoint x="430" y="265" as="targetPoint" />
            <mxPoint x="370" y="290" as="sourcePoint" />
            <Array as="points">
              <mxPoint x="370" y="290" />
            </Array>
          </mxGeometry>
        </mxCell>
        <mxCell id="8hbCrLKdUro0mNGnIJSy-27" value="&lt;font style=&quot;font-size: 9px;&quot;&gt;NUM_CONTA&lt;/font&gt;" style="edgeLabel;html=1;align=center;verticalAlign=middle;resizable=0;points=[];" vertex="1" connectable="0" parent="8hbCrLKdUro0mNGnIJSy-26">
          <mxGeometry x="-0.0079" relative="1" as="geometry">
            <mxPoint as="offset" />
          </mxGeometry>
        </mxCell>
        <mxCell id="8hbCrLKdUro0mNGnIJSy-28" value="" style="shape=umlLifeline;perimeter=lifelinePerimeter;whiteSpace=wrap;html=1;container=1;dropTarget=0;collapsible=0;recursiveResize=0;outlineConnect=0;portConstraint=eastwest;newEdgeStyle={&quot;curved&quot;:0,&quot;rounded&quot;:0};participant=umlEntity;" vertex="1" parent="1">
          <mxGeometry x="610" y="170" width="40" height="550" as="geometry" />
        </mxCell>
        <mxCell id="8hbCrLKdUro0mNGnIJSy-29" value="" style="html=1;points=[[0,0,0,0,5],[0,1,0,0,-5],[1,0,0,0,5],[1,1,0,0,-5]];perimeter=orthogonalPerimeter;outlineConnect=0;targetShapes=umlLifeline;portConstraint=eastwest;newEdgeStyle={&quot;curved&quot;:0,&quot;rounded&quot;:0};fillStyle=solid;" vertex="1" parent="8hbCrLKdUro0mNGnIJSy-28">
          <mxGeometry x="15" y="130" width="10" height="80" as="geometry" />
        </mxCell>
        <mxCell id="8hbCrLKdUro0mNGnIJSy-64" value="" style="html=1;points=[[0,0,0,0,5],[0,1,0,0,-5],[1,0,0,0,5],[1,1,0,0,-5]];perimeter=orthogonalPerimeter;outlineConnect=0;targetShapes=umlLifeline;portConstraint=eastwest;newEdgeStyle={&quot;curved&quot;:0,&quot;rounded&quot;:0};fillStyle=solid;" vertex="1" parent="8hbCrLKdUro0mNGnIJSy-28">
          <mxGeometry x="15" y="340" width="10" height="80" as="geometry" />
        </mxCell>
        <mxCell id="8hbCrLKdUro0mNGnIJSy-30" style="edgeStyle=orthogonalEdgeStyle;rounded=0;orthogonalLoop=1;jettySize=auto;html=1;curved=0;entryX=0;entryY=0;entryDx=0;entryDy=5;entryPerimeter=0;" edge="1" parent="1" source="8hbCrLKdUro0mNGnIJSy-25" target="8hbCrLKdUro0mNGnIJSy-29">
          <mxGeometry relative="1" as="geometry">
            <Array as="points">
              <mxPoint x="540" y="305" />
              <mxPoint x="540" y="305" />
            </Array>
          </mxGeometry>
        </mxCell>
        <mxCell id="8hbCrLKdUro0mNGnIJSy-31" value="&lt;font style=&quot;font-size: 8px;&quot;&gt;CONSULTA_CONTA&lt;/font&gt;" style="edgeLabel;html=1;align=center;verticalAlign=middle;resizable=0;points=[];" vertex="1" connectable="0" parent="8hbCrLKdUro0mNGnIJSy-30">
          <mxGeometry x="-0.1118" y="-1" relative="1" as="geometry">
            <mxPoint as="offset" />
          </mxGeometry>
        </mxCell>
        <mxCell id="8hbCrLKdUro0mNGnIJSy-32" value=":ENT_CONTA" style="text;html=1;align=center;verticalAlign=middle;resizable=0;points=[];autosize=1;strokeColor=none;fillColor=none;labelBackgroundColor=default;" vertex="1" parent="1">
          <mxGeometry x="590" y="210" width="100" height="30" as="geometry" />
        </mxCell>
        <mxCell id="8hbCrLKdUro0mNGnIJSy-33" value="&lt;font style=&quot;font-size: 9px;&quot;&gt;CONTA_EXISTE&lt;/font&gt;" style="html=1;verticalAlign=bottom;endArrow=open;dashed=1;endSize=8;curved=0;rounded=0;" edge="1" parent="1" source="8hbCrLKdUro0mNGnIJSy-29" target="8hbCrLKdUro0mNGnIJSy-25">
          <mxGeometry relative="1" as="geometry">
            <mxPoint x="620" y="340" as="sourcePoint" />
            <mxPoint x="530" y="340" as="targetPoint" />
          </mxGeometry>
        </mxCell>
        <mxCell id="8hbCrLKdUro0mNGnIJSy-34" value="&lt;font style=&quot;font-size: 9px;&quot;&gt;CONTA_VALIDA&lt;/font&gt;" style="html=1;verticalAlign=bottom;endArrow=open;dashed=1;endSize=8;curved=0;rounded=0;exitX=0;exitY=1;exitDx=0;exitDy=-5;exitPerimeter=0;" edge="1" parent="1" source="8hbCrLKdUro0mNGnIJSy-35" target="8hbCrLKdUro0mNGnIJSy-19">
          <mxGeometry x="NaN" y="72" relative="1" as="geometry">
            <mxPoint x="470" y="330" as="sourcePoint" />
            <mxPoint x="390" y="330" as="targetPoint" />
            <mxPoint x="70" y="15" as="offset" />
          </mxGeometry>
        </mxCell>
        <mxCell id="8hbCrLKdUro0mNGnIJSy-36" value="" style="html=1;verticalAlign=bottom;endArrow=open;dashed=1;endSize=8;curved=0;rounded=0;exitX=0;exitY=1;exitDx=0;exitDy=-5;exitPerimeter=0;" edge="1" parent="1" source="8hbCrLKdUro0mNGnIJSy-25" target="8hbCrLKdUro0mNGnIJSy-35">
          <mxGeometry relative="1" as="geometry">
            <mxPoint x="496" y="345" as="sourcePoint" />
            <mxPoint x="370" y="345" as="targetPoint" />
          </mxGeometry>
        </mxCell>
        <mxCell id="8hbCrLKdUro0mNGnIJSy-35" value="" style="html=1;points=[[0,0,0,0,5],[0,1,0,0,-5],[1,0,0,0,5],[1,1,0,0,-5]];perimeter=orthogonalPerimeter;outlineConnect=0;targetShapes=umlLifeline;portConstraint=eastwest;newEdgeStyle={&quot;curved&quot;:0,&quot;rounded&quot;:0};" vertex="1" parent="1">
          <mxGeometry x="370" y="340" width="10" height="10" as="geometry" />
        </mxCell>
        <mxCell id="8hbCrLKdUro0mNGnIJSy-38" style="edgeStyle=orthogonalEdgeStyle;rounded=0;orthogonalLoop=1;jettySize=auto;html=1;curved=0;exitX=1;exitY=0;exitDx=0;exitDy=5;exitPerimeter=0;" edge="1" parent="1" target="8hbCrLKdUro0mNGnIJSy-42">
          <mxGeometry relative="1" as="geometry">
            <Array as="points">
              <mxPoint x="120" y="406" />
            </Array>
            <mxPoint x="120" y="405" as="sourcePoint" />
            <mxPoint x="245" y="405" as="targetPoint" />
          </mxGeometry>
        </mxCell>
        <mxCell id="8hbCrLKdUro0mNGnIJSy-39" value="&lt;font style=&quot;font-size: 8px;&quot;&gt;INFORMA SENHA&lt;/font&gt;" style="edgeLabel;html=1;align=center;verticalAlign=middle;resizable=0;points=[];" vertex="1" connectable="0" parent="8hbCrLKdUro0mNGnIJSy-38">
          <mxGeometry x="-0.1429" y="2" relative="1" as="geometry">
            <mxPoint as="offset" />
          </mxGeometry>
        </mxCell>
        <mxCell id="8hbCrLKdUro0mNGnIJSy-42" value="" style="html=1;points=[[0,0,0,0,5],[0,1,0,0,-5],[1,0,0,0,5],[1,1,0,0,-5]];perimeter=orthogonalPerimeter;outlineConnect=0;targetShapes=umlLifeline;portConstraint=eastwest;newEdgeStyle={&quot;curved&quot;:0,&quot;rounded&quot;:0};fillStyle=solid;" vertex="1" parent="1">
          <mxGeometry x="360" y="400" width="10" height="90" as="geometry" />
        </mxCell>
        <mxCell id="8hbCrLKdUro0mNGnIJSy-45" value="" style="html=1;points=[[0,0,0,0,5],[0,1,0,0,-5],[1,0,0,0,5],[1,1,0,0,-5]];perimeter=orthogonalPerimeter;outlineConnect=0;targetShapes=umlLifeline;portConstraint=eastwest;newEdgeStyle={&quot;curved&quot;:0,&quot;rounded&quot;:0};fillStyle=solid;" vertex="1" parent="1">
          <mxGeometry x="495.67" y="420" width="10" height="70" as="geometry" />
        </mxCell>
        <mxCell id="8hbCrLKdUro0mNGnIJSy-46" style="edgeStyle=orthogonalEdgeStyle;rounded=0;orthogonalLoop=1;jettySize=auto;html=1;curved=0;" edge="1" parent="1" target="8hbCrLKdUro0mNGnIJSy-45">
          <mxGeometry relative="1" as="geometry">
            <mxPoint x="430" y="405" as="targetPoint" />
            <mxPoint x="370" y="430" as="sourcePoint" />
            <Array as="points">
              <mxPoint x="370" y="430" />
            </Array>
          </mxGeometry>
        </mxCell>
        <mxCell id="8hbCrLKdUro0mNGnIJSy-47" value="&lt;font style=&quot;font-size: 9px;&quot;&gt;SENHA_CONTA&lt;/font&gt;" style="edgeLabel;html=1;align=center;verticalAlign=middle;resizable=0;points=[];" vertex="1" connectable="0" parent="8hbCrLKdUro0mNGnIJSy-46">
          <mxGeometry x="-0.0079" relative="1" as="geometry">
            <mxPoint as="offset" />
          </mxGeometry>
        </mxCell>
        <mxCell id="8hbCrLKdUro0mNGnIJSy-48" value="" style="html=1;points=[[0,0,0,0,5],[0,1,0,0,-5],[1,0,0,0,5],[1,1,0,0,-5]];perimeter=orthogonalPerimeter;outlineConnect=0;targetShapes=umlLifeline;portConstraint=eastwest;newEdgeStyle={&quot;curved&quot;:0,&quot;rounded&quot;:0};fillStyle=solid;" vertex="1" parent="1">
          <mxGeometry x="625" y="440" width="10" height="60" as="geometry" />
        </mxCell>
        <mxCell id="8hbCrLKdUro0mNGnIJSy-49" style="edgeStyle=orthogonalEdgeStyle;rounded=0;orthogonalLoop=1;jettySize=auto;html=1;curved=0;entryX=0;entryY=0;entryDx=0;entryDy=5;entryPerimeter=0;" edge="1" parent="1" source="8hbCrLKdUro0mNGnIJSy-45" target="8hbCrLKdUro0mNGnIJSy-48">
          <mxGeometry relative="1" as="geometry">
            <Array as="points">
              <mxPoint x="540" y="445" />
              <mxPoint x="540" y="445" />
            </Array>
          </mxGeometry>
        </mxCell>
        <mxCell id="8hbCrLKdUro0mNGnIJSy-50" value="&lt;font style=&quot;font-size: 8px;&quot;&gt;VERIFICA_SENHA&lt;/font&gt;" style="edgeLabel;html=1;align=center;verticalAlign=middle;resizable=0;points=[];" vertex="1" connectable="0" parent="8hbCrLKdUro0mNGnIJSy-49">
          <mxGeometry x="-0.1118" y="-1" relative="1" as="geometry">
            <mxPoint as="offset" />
          </mxGeometry>
        </mxCell>
        <mxCell id="8hbCrLKdUro0mNGnIJSy-51" value="&lt;font style=&quot;font-size: 9px;&quot;&gt;SENHA_CORRETA&lt;/font&gt;" style="html=1;verticalAlign=bottom;endArrow=open;dashed=1;endSize=8;curved=0;rounded=0;" edge="1" parent="1" source="8hbCrLKdUro0mNGnIJSy-48" target="8hbCrLKdUro0mNGnIJSy-45">
          <mxGeometry x="-0.0782" y="20" relative="1" as="geometry">
            <mxPoint x="620" y="480" as="sourcePoint" />
            <mxPoint x="530" y="480" as="targetPoint" />
            <mxPoint as="offset" />
          </mxGeometry>
        </mxCell>
        <mxCell id="8hbCrLKdUro0mNGnIJSy-52" value="&lt;font style=&quot;font-size: 9px;&quot;&gt;SENHA_VALIDA&lt;/font&gt;" style="html=1;verticalAlign=bottom;endArrow=open;dashed=1;endSize=8;curved=0;rounded=0;exitX=0;exitY=1;exitDx=0;exitDy=-5;exitPerimeter=0;" edge="1" parent="1" source="8hbCrLKdUro0mNGnIJSy-54" target="8hbCrLKdUro0mNGnIJSy-42">
          <mxGeometry y="72" relative="1" as="geometry">
            <mxPoint x="470" y="470" as="sourcePoint" />
            <mxPoint x="390" y="470" as="targetPoint" />
            <mxPoint x="70" y="15" as="offset" />
          </mxGeometry>
        </mxCell>
        <mxCell id="8hbCrLKdUro0mNGnIJSy-53" value="" style="html=1;verticalAlign=bottom;endArrow=open;dashed=1;endSize=8;curved=0;rounded=0;exitX=0;exitY=1;exitDx=0;exitDy=-5;exitPerimeter=0;" edge="1" parent="1" source="8hbCrLKdUro0mNGnIJSy-45" target="8hbCrLKdUro0mNGnIJSy-54">
          <mxGeometry relative="1" as="geometry">
            <mxPoint x="496" y="485" as="sourcePoint" />
            <mxPoint x="370" y="485" as="targetPoint" />
          </mxGeometry>
        </mxCell>
        <mxCell id="8hbCrLKdUro0mNGnIJSy-54" value="" style="html=1;points=[[0,0,0,0,5],[0,1,0,0,-5],[1,0,0,0,5],[1,1,0,0,-5]];perimeter=orthogonalPerimeter;outlineConnect=0;targetShapes=umlLifeline;portConstraint=eastwest;newEdgeStyle={&quot;curved&quot;:0,&quot;rounded&quot;:0};" vertex="1" parent="1">
          <mxGeometry x="370" y="480" width="10" height="10" as="geometry" />
        </mxCell>
        <mxCell id="8hbCrLKdUro0mNGnIJSy-56" style="edgeStyle=orthogonalEdgeStyle;rounded=0;orthogonalLoop=1;jettySize=auto;html=1;curved=0;exitX=1;exitY=0;exitDx=0;exitDy=5;exitPerimeter=0;" edge="1" parent="1" target="8hbCrLKdUro0mNGnIJSy-55">
          <mxGeometry relative="1" as="geometry">
            <Array as="points">
              <mxPoint x="220" y="504" />
              <mxPoint x="220" y="504" />
            </Array>
            <mxPoint x="120" y="504.31" as="sourcePoint" />
            <mxPoint x="245" y="504.31" as="targetPoint" />
          </mxGeometry>
        </mxCell>
        <mxCell id="8hbCrLKdUro0mNGnIJSy-57" value="&lt;font style=&quot;font-size: 8px;&quot;&gt;VALOR_DEPOSITAR&lt;/font&gt;" style="edgeLabel;html=1;align=center;verticalAlign=middle;resizable=0;points=[];" vertex="1" connectable="0" parent="8hbCrLKdUro0mNGnIJSy-56">
          <mxGeometry x="-0.1429" y="2" relative="1" as="geometry">
            <mxPoint as="offset" />
          </mxGeometry>
        </mxCell>
        <mxCell id="8hbCrLKdUro0mNGnIJSy-58" style="edgeStyle=orthogonalEdgeStyle;rounded=0;orthogonalLoop=1;jettySize=auto;html=1;curved=0;" edge="1" parent="1">
          <mxGeometry relative="1" as="geometry">
            <Array as="points">
              <mxPoint x="330" y="519.31" />
              <mxPoint x="330" y="519.31" />
            </Array>
            <mxPoint x="255" y="519.3444827586209" as="sourcePoint" />
            <mxPoint x="360" y="519.31" as="targetPoint" />
          </mxGeometry>
        </mxCell>
        <mxCell id="8hbCrLKdUro0mNGnIJSy-59" value="&lt;font style=&quot;font-size: 9px;&quot;&gt;DIGITA_VALOR&lt;/font&gt;" style="edgeLabel;html=1;align=center;verticalAlign=middle;resizable=0;points=[];" vertex="1" connectable="0" parent="8hbCrLKdUro0mNGnIJSy-58">
          <mxGeometry x="0.0095" relative="1" as="geometry">
            <mxPoint as="offset" />
          </mxGeometry>
        </mxCell>
        <mxCell id="8hbCrLKdUro0mNGnIJSy-62" style="edgeStyle=orthogonalEdgeStyle;rounded=0;orthogonalLoop=1;jettySize=auto;html=1;curved=0;" edge="1" parent="1" target="8hbCrLKdUro0mNGnIJSy-61">
          <mxGeometry relative="1" as="geometry">
            <Array as="points">
              <mxPoint x="460" y="540" />
              <mxPoint x="460" y="540" />
            </Array>
            <mxPoint x="370" y="539.3744827586208" as="sourcePoint" />
            <mxPoint x="475" y="539.3399999999999" as="targetPoint" />
          </mxGeometry>
        </mxCell>
        <mxCell id="8hbCrLKdUro0mNGnIJSy-63" value="&lt;font style=&quot;font-size: 9px;&quot;&gt;VALOR&lt;/font&gt;" style="edgeLabel;html=1;align=center;verticalAlign=middle;resizable=0;points=[];" vertex="1" connectable="0" parent="8hbCrLKdUro0mNGnIJSy-62">
          <mxGeometry x="0.0095" relative="1" as="geometry">
            <mxPoint as="offset" />
          </mxGeometry>
        </mxCell>
        <mxCell id="8hbCrLKdUro0mNGnIJSy-65" style="edgeStyle=orthogonalEdgeStyle;rounded=0;orthogonalLoop=1;jettySize=auto;html=1;curved=0;" edge="1" parent="1" source="8hbCrLKdUro0mNGnIJSy-61" target="8hbCrLKdUro0mNGnIJSy-64">
          <mxGeometry relative="1" as="geometry">
            <Array as="points">
              <mxPoint x="570" y="550" />
              <mxPoint x="570" y="550" />
            </Array>
            <mxPoint x="508.31" y="539" as="sourcePoint" />
            <mxPoint x="609.9799999999999" y="539" as="targetPoint" />
          </mxGeometry>
        </mxCell>
        <mxCell id="8hbCrLKdUro0mNGnIJSy-66" value="&lt;font style=&quot;font-size: 9px;&quot;&gt;DEPOSITAR_VALOR()&lt;/font&gt;" style="edgeLabel;html=1;align=center;verticalAlign=middle;resizable=0;points=[];" vertex="1" connectable="0" parent="8hbCrLKdUro0mNGnIJSy-65">
          <mxGeometry x="0.0095" relative="1" as="geometry">
            <mxPoint as="offset" />
          </mxGeometry>
        </mxCell>
        <mxCell id="8hbCrLKdUro0mNGnIJSy-70" value="&lt;font size=&quot;1&quot;&gt;DEPOSITO_OK&lt;/font&gt;" style="html=1;verticalAlign=bottom;endArrow=open;dashed=1;endSize=8;curved=0;rounded=0;" edge="1" parent="1" source="8hbCrLKdUro0mNGnIJSy-64" target="8hbCrLKdUro0mNGnIJSy-61">
          <mxGeometry x="-0.0782" y="20" relative="1" as="geometry">
            <mxPoint x="624.5" y="570" as="sourcePoint" />
            <mxPoint x="505.5" y="570" as="targetPoint" />
            <mxPoint as="offset" />
            <Array as="points">
              <mxPoint x="570" y="580" />
            </Array>
          </mxGeometry>
        </mxCell>
        <mxCell id="8hbCrLKdUro0mNGnIJSy-71" value="&lt;font size=&quot;1&quot;&gt;CONCLUIDO&lt;/font&gt;" style="html=1;verticalAlign=bottom;endArrow=open;dashed=1;endSize=8;curved=0;rounded=0;" edge="1" parent="1" source="8hbCrLKdUro0mNGnIJSy-61" target="8hbCrLKdUro0mNGnIJSy-60">
          <mxGeometry x="-0.0782" y="20" relative="1" as="geometry">
            <mxPoint x="489" y="584" as="sourcePoint" />
            <mxPoint x="370" y="584" as="targetPoint" />
            <mxPoint as="offset" />
            <Array as="points">
              <mxPoint x="434" y="584" />
            </Array>
          </mxGeometry>
        </mxCell>
        <mxCell id="8hbCrLKdUro0mNGnIJSy-72" value="&lt;font style=&quot;font-size: 8px;&quot;&gt;MSG_CONCLUIDO&lt;/font&gt;" style="html=1;verticalAlign=bottom;endArrow=open;dashed=1;endSize=8;curved=0;rounded=0;" edge="1" parent="1" source="8hbCrLKdUro0mNGnIJSy-60">
          <mxGeometry x="-0.0782" y="20" relative="1" as="geometry">
            <mxPoint x="346" y="620" as="sourcePoint" />
            <mxPoint x="270" y="620" as="targetPoint" />
            <mxPoint as="offset" />
            <Array as="points">
              <mxPoint x="284" y="620" />
            </Array>
          </mxGeometry>
        </mxCell>
        <mxCell id="8hbCrLKdUro0mNGnIJSy-76" value="DIGITA_SENHA nÃ£o Ã© informado pelo FUNCIONARIO, mas sim pelo CLIENTE." style="shape=note2;boundedLbl=1;whiteSpace=wrap;html=1;size=25;verticalAlign=top;align=center;" vertex="1" parent="1">
          <mxGeometry x="-100" y="370" width="160" height="120" as="geometry" />
        </mxCell>
        <mxCell id="8hbCrLKdUro0mNGnIJSy-77" value="REF" style="shape=umlFrame;whiteSpace=wrap;html=1;pointerEvents=0;labelBackgroundColor=#FFFFFF;fillStyle=solid;shadow=0;fillColor=#FFFFFF;labelBorderColor=none;textShadow=0;" vertex="1" parent="1">
          <mxGeometry x="414" y="610" width="300" height="90" as="geometry" />
        </mxCell>
        <mxCell id="8hbCrLKdUro0mNGnIJSy-78" value="REGISTRAR MOVIMENTO" style="text;html=1;align=center;verticalAlign=middle;resizable=0;points=[];autosize=1;strokeColor=none;fillColor=none;labelBackgroundColor=default;" vertex="1" parent="1">
          <mxGeometry x="480" y="640" width="170" height="30" as="geometry" />
        </mxCell>
      </root>
    </mxGraphModel>
  </diagram>
</mxfile>
